<svg width="32" height="32" xmlns="http://www.w3.org/2000/svg">
 <title/>

 <g>
  <title>background</title>
  <rect fill="none" id="canvas_background" height="402" width="582" y="-1" x="-1"/>
 </g>
 <g>
  <title fill="#ffffff" stroke="#fff">Layer 1</title>
  <path fill="#ffffff" stroke="#fff" id="svg_1" d="m14.13,12.48l-6.73,0a0.94,0.94 0 1 0 0,1.87l6.73,0a0.94,0.94 0 0 0 0,-1.87z"/>
  <path fill="#ffffff" stroke="#fff" id="svg_2" d="m11.6,16.69l-4.2,0a0.93,0.93 0 1 0 0,1.86l4.2,0a0.93,0.93 0 1 0 0,-1.86z"/>
  <path fill="#ffffff" stroke="#fff" id="svg_3" d="m28.48,6.86a0.91,0.91 0 0 0 -0.28,-0.66l-3.92,-3.93a0.94,0.94 0 0 0 -1.32,0l-2.3,2.3l-14.52,0a2.63,2.63 0 0 0 -2.62,2.62l0,20.19a2.62,2.62 0 0 0 2.62,2.62l14.3,0a2.61,2.61 0 0 0 2.61,-2.62l0,-14.71l5.15,-5.15a0.94,0.94 0 0 0 0.28,-0.66zm-8,21.27l-14.34,0a0.75,0.75 0 0 1 -0.75,-0.75l0,-20.19a0.76,0.76 0 0 1 0.75,-0.75l12.65,0l-2.55,2.56a0.92,0.92 0 0 0 -0.21,0.89l0,3.69a0.92,0.92 0 0 0 0.93,0.93l3.86,0a0.94,0.94 0 0 0 0.37,-0.07l0,12.94a0.75,0.75 0 0 1 -0.75,0.75l0.04,0zm0,-15.48l-2.59,0l0,-2.65l5.73,-5.73l2.6,2.61l-5.74,5.77z"/>
 </g>
</svg>