<svg width="200" height="200" xmlns="http://www.w3.org/2000/svg">

 <title/>
 <g>
  <title>background</title>
  <rect fill="none" id="canvas_background" height="402" width="582" y="-1" x="-1"/>
 </g>
 <g>
  <title fill="#ffffff">Layer 1</title>
  <path fill="#ffffff" id="svg_1" d="m146.83,176.1l0,0l-49.83,-0.4a31.14,31.14 0 0 1 -31.17,-31.19l0,-41.11a30.31,30.31 0 0 1 8.6,-21.54c12.57,-14.32 12.18,-32.86 11.97,-36.51l0,-0.13c-0.57,-8 2.07,-12.91 4.39,-15.59a16.49,16.49 0 0 1 11.27,-5.63c5.69,-0.61 11.86,1.52 17.39,5.95a40,40 0 0 1 9.88,12.09a45.56,45.56 0 0 1 5.17,16.88a49.66,49.66 0 0 1 -0.44,13.77l21.94,0.31a30.78,30.78 0 0 1 22.5,9.59c5.23,5.27 8.51,13 9,21.25a2.18,2.18 0 0 1 0,0.51a163.33,163.33 0 0 1 -3.16,28.86a86.73,86.73 0 0 1 -7.64,22.33c-9,17 -21.21,20.57 -29.86,20.57l-0.01,-0.01zm-49.47,-131.43l0,0a67,67 0 0 1 -1.2,16.09a59,59 0 0 1 -13.61,28.5l-0.23,0.23a19.21,19.21 0 0 0 -5.51,13.91l0,41.11a20.22,20.22 0 0 0 20.19,20.2l0,0l49.79,0.39c8.2,0 15,-5 20.14,-14.71c5.66,-10.72 9,-26.66 9.53,-46.09a22.06,22.06 0 0 0 -5.9,-14l-0.16,-0.15a19.45,19.45 0 0 0 -14.51,-6.15l-0.08,0l-28.81,-0.38a5.48,5.48 0 0 1 -5.12,-7.23a39.32,39.32 0 0 0 1.72,-16.23l0,0c-0.92,-8.71 -5,-16.76 -11,-21.56c-3.22,-2.6 -6.64,-3.91 -9.39,-3.6l-0.22,0a5.56,5.56 0 0 0 -3.85,1.86c-1.38,1.62 -2,4.27 -1.73,7.67l0,0.14l-0.05,0zm0.05,0l0,0.19a0.53,0.53 0 0 0 -0.05,-0.17l0.05,-0.02z" class="cls-1"/>
  <path fill="#ffffff" id="svg_2" d="m35.23,173.44l-2.76,0a20,20 0 0 1 -20,-20l0,-45.06a20,20 0 0 1 20,-20l2.76,0a20,20 0 0 1 20,20l0,45.08a20,20 0 0 1 -20,19.98zm-2.76,-74.06a9,9 0 0 0 -9,9l0,45.08a9,9 0 0 0 9,9l2.76,0a9,9 0 0 0 9,-9l0,-45.08a9,9 0 0 0 -9,-9l-2.76,0z" class="cls-2"/>
 </g>
</svg>