<svg width="400" height="400" xmlns="http://www.w3.org/2000/svg">

 <g>
  <title>background</title>
  <rect fill="none" id="canvas_background" height="402" width="402" y="-1" x="-1"/>
 </g>
 <g>
  <title fill="#ffffff">Layer 1</title>
  <path fill="#ffffff" id="svg_3" d="m198.805614,238.983549c-52.8,0 -95.8,-43 -95.8,-95.8s43,-95.8 95.8,-95.8s95.8,43 95.8,95.8s-43,95.8 -95.8,95.8zm0,-164.3c-37.7,0 -68.4,30.7 -68.4,68.4s30.7,68.4 68.4,68.4s68.4,-30.7 68.4,-68.4s-30.7,-68.4 -68.4,-68.4z"/>
  <path fill="#ffffff" id="svg_5" d="m335.705614,348.483549l-27.4,0c0,-60.4 -49.1,-109.5 -109.5,-109.5s-109.5,49.1 -109.5,109.5l-27.4,0c0,-75.5 61.4,-136.9 136.9,-136.9s136.9,61.4 136.9,136.9z"/>
 </g>
</svg>